<?xml version="1.0" standalone="no"?>
<!DOCTYPE svg PUBLIC "-//W3C//DTD SVG 20010904//EN"
 "http://www.w3.org/TR/2001/REC-SVG-20010904/DTD/svg10.dtd">
<svg version="1.0" xmlns="http://www.w3.org/2000/svg"
 width="550.000000pt" height="550.000000pt" viewBox="0 0 550.000000 550.000000"
 preserveAspectRatio="xMidYMid meet">
<metadata>
Created by potrace 1.11, written by Peter Selinger 2001-2013
</metadata>
<g transform="translate(0.000000,550.000000) scale(0.100000,-0.100000)"
fill="#000000" stroke="none">
<path d="M2510 5029 c-127 -16 -156 -20 -200 -30 -25 -6 -52 -12 -60 -14 -86
-19 -127 -30 -221 -61 -59 -19 -121 -41 -136 -49 -15 -8 -32 -15 -36 -15 -16
0 -243 -117 -313 -161 -416 -261 -746 -654 -923 -1102 -72 -182 -131 -416
-148 -592 -10 -99 -10 -417 -1 -505 7 -69 35 -233 44 -262 3 -10 7 -30 10 -44
11 -59 94 -296 139 -393 302 -659 896 -1137 1600 -1290 171 -37 308 -51 500
-51 130 0 126 0 345 26 24 3 47 7 50 9 3 2 24 6 47 10 72 10 273 70 383 113
520 204 959 607 1205 1103 25 52 50 101 55 111 38 71 120 331 145 461 23 120
24 130 31 197 4 36 8 79 10 95 9 74 2 340 -8 351 -3 2 -29 -7 -57 -21 -101
-51 -242 -63 -358 -29 -62 17 -156 70 -202 113 l-32 30 -37 -23 c-174 -109
-421 -161 -638 -132 -317 43 -603 253 -740 542 -50 106 -52 110 -69 178 -43
171 -37 381 17 541 25 76 72 179 99 217 20 28 20 29 1 46 -85 76 -149 234
-146 362 2 89 34 209 66 248 6 7 8 16 4 20 -11 10 -347 11 -426 1z"/>
<path d="M4033 5021 c-83 -38 -135 -117 -135 -206 -1 -129 98 -228 226 -228
253 0 317 340 82 438 -48 20 -123 18 -173 -4z"/>
<path d="M3884 4226 c-42 -19 -92 -82 -99 -126 -23 -137 123 -248 244 -185
115 60 127 221 22 291 -49 32 -121 41 -167 20z"/>
<path d="M4816 3885 c-172 -59 -146 -303 36 -332 64 -10 146 39 174 104 58
135 -71 275 -210 228z"/>
</g>
</svg>
